<svg width="24" height="24" viewBox="0 0 24 24" fill="none" xmlns="http://www.w3.org/2000/svg">
<g id="Components">
<g id="icon/send">
<path id="Vector" d="M5.4 19.4253C5.06667 19.5586 4.75 19.5293 4.45 19.3373C4.15 19.146 4 18.867 4 18.5003V14.7753C4 14.542 4.06667 14.3336 4.2 14.1503C4.33333 13.967 4.51667 13.8503 4.75 13.8003L12 12.0003L4.75 10.2003C4.51667 10.1503 4.33333 10.0336 4.2 9.8503C4.06667 9.66697 4 9.45863 4 9.2253V5.5003C4 5.13363 4.15 4.8543 4.45 4.6623C4.75 4.47097 5.06667 4.44197 5.4 4.5753L19.8 11.0753C20.2167 11.2586 20.425 11.567 20.425 12.0003C20.425 12.4336 20.2167 12.742 19.8 12.9253L5.4 19.4253Z" fill="currentColor"/>
</g>
</g>
</svg>
